# File created by Blade
# Date/Time:  Tue Apr 07 21:36:59 2015
# Frame Rate: 120.000 fps
#------------------------------------------------------
:FULLY-SPECIFIED
:DEGREES
965
root -4.439580 33.004383 7.406217 553.620686 176.514321 -542.349489
Spine -15.535322 -7.236160 2.976922
Head 10.393061 -1.840120 -3.499059
LeftShoulder -22.398807 40.337822 16.161581
LeftArm 60.368367 -54.446353 -59.006395
LeftForeArm 11.629887 -0.000000 -0.894783
LeftHand 1.751364 0.000000 3.683766
LeftHandThumb1 -26.253704 0.000000 33.147579
RightShoulder -6.246473 3.619109 -30.968322
RightArm 13.043076 14.966703 42.091017
RightForeArm -15.681898 -0.000000 2.834263
RightHand 1.093870 -0.000000 0.788333
RightHandThumb1 -24.326973 -0.000000 -32.862282
LeftUpLeg -6.398885 -3.798638 6.310370
LeftLeg -4.852210 -0.000000 0.000000
LeftFoot -4.431023 8.349233 -19.780536
LeftToeBase -10.966287 -0.000000 0.000000
RightUpLeg -4.729927 1.623928 2.217763
RightLeg -6.467226 -0.000000 0.000000
RightFoot -3.702924 -14.926182 7.917110
RightToeBase -3.122763 -0.000000 0.000000
966
root -4.438897 33.003709 7.407768 553.620215 176.516086 -542.340339
Spine -15.553087 -7.242863 2.968056
Head 10.384646 -1.866251 -3.488593
LeftShoulder -22.398542 40.346642 16.155031
LeftArm 60.355575 -54.443093 -59.007028
LeftForeArm 11.567397 -0.000000 -0.887534
LeftHand 1.732407 -0.000000 3.667219
LeftHandThumb1 -26.253704 0.000000 33.147579
RightShoulder -6.240222 3.620243 -30.963342
RightArm 13.031843 14.950368 42.107936
RightForeArm -15.707125 -0.000000 2.839580
RightHand 1.096212 0.000000 0.862671
RightHandThumb1 -24.326973 -0.000000 -32.862282
LeftUpLeg -6.394396 -3.774246 6.291780
LeftLeg -4.853302 -0.000000 0.000000
LeftFoot -4.433693 8.345659 -19.730396
LeftToeBase -10.910783 -0.000000 0.000000
RightUpLeg -4.728278 1.629759 2.208172
RightLeg -6.459991 -0.000000 0.000000
RightFoot -3.715514 -14.936673 7.898253
RightToeBase -3.167882 -0.000000 0.000000
967
root -4.438751 33.003405 7.408727 553.625549 176.519864 -542.328638
Spine -15.579632 -7.247286 2.952215
Head 10.390860 -1.888615 -3.467847
LeftShoulder -22.381548 40.353257 16.163249
LeftArm 60.358718 -54.456260 -59.049552
LeftForeArm 11.525471 -0.000000 -0.866587
LeftHand 1.711964 0.000000 3.642783
LeftHandThumb1 -26.253704 0.000000 33.147579
RightShoulder -6.238905 3.577867 -30.948564
RightArm 13.059044 14.983254 42.145373
RightForeArm -15.668519 -0.000000 2.848402
RightHand 1.155677 -0.000000 0.786509
RightHandThumb1 -24.326973 -0.000000 -32.862282
LeftUpLeg -6.404856 -3.740052 6.272562
LeftLeg -4.835585 -0.000000 0.000000
LeftFoot -4.439586 8.329616 -19.737068
LeftToeBase -10.908527 -0.000000 0.000000
RightUpLeg -4.738427 1.617290 2.200482
RightLeg -6.442220 -0.000000 0.000000
RightFoot -3.736599 -14.930823 7.865199
RightToeBase -3.136040 -0.000000 0.000000
968
root -4.438552 33.003256 7.409766 553.632672 176.522117 -542.315877
Spine -15.606542 -7.251069 2.932651
Head 10.392622 -1.915178 -3.450033
LeftShoulder -22.361532 40.369840 16.172091
LeftArm 60.374691 -54.484847 -59.109704
LeftForeArm 11.425005 -0.000000 -0.815772
LeftHand 1.645407 -0.000000 3.586224
LeftHandThumb1 -26.253704 0.000000 33.147579
RightShoulder -6.234372 3.550635 -30.926636
RightArm 13.059666 14.989419 42.172058
RightForeArm -15.679491 -0.000000 2.858754
RightHand 1.231471 -0.000000 0.728383
RightHandThumb1 -24.326973 -0.000000 -32.862282
LeftUpLeg -6.409842 -3.735605 6.259178
LeftLeg -4.837981 -0.000000 0.000000
LeftFoot -4.386375 8.286835 -19.943725
LeftToeBase -11.212701 -0.000000 0.000000
RightUpLeg -4.746024 1.615914 2.189409
RightLeg -6.431629 -0.000000 0.000000
RightFoot -3.759800 -14.937016 7.871481
RightToeBase -3.101267 -0.000000 0.000000
969
root -4.437093 33.003470 7.410807 553.631858 176.526031 -542.306958
Spine -15.627618 -7.262214 2.931290
Head 10.393250 -1.942175 -3.464153
LeftShoulder -22.351146 40.362200 16.162925
LeftArm 60.345155 -54.485445 -59.127813
LeftForeArm 11.396694 -0.000000 -0.769160
LeftHand 1.604699 0.000000 3.596061
LeftHandThumb1 -26.253704 0.000000 33.147579
RightShoulder -6.221854 3.515816 -30.913393
RightArm 13.080453 15.014232 42.217384
RightForeArm -15.648696 -0.000000 2.865648
RightHand 1.318355 -0.000000 0.621453
RightHandThumb1 -24.326973 -0.000000 -32.862282
LeftUpLeg -6.406778 -3.736308 6.239943
LeftLeg -4.832221 -0.000000 0.000000
LeftFoot -4.449101 8.365075 -19.734666
LeftToeBase -10.906505 -0.000000 0.000000
RightUpLeg -4.747942 1.597741 2.181478
RightLeg -6.419250 -0.000000 0.000000
RightFoot -3.774021 -14.917143 7.881823
RightToeBase -3.114090 -0.000000 0.000000
970
root -4.438064 33.004184 7.410756 553.639994 176.540229 -542.304489
Spine -15.657835 -7.265495 2.923336
Head 10.401058 -1.962806 -3.457825
LeftShoulder -22.347868 40.393688 16.161888
LeftArm 60.396598 -54.515442 -59.265027
LeftForeArm 11.435618 -0.000000 -0.674609
LeftHand 1.529137 -0.000000 3.533178
LeftHandThumb1 -26.253704 0.000000 33.147579
RightShoulder -6.198768 3.546687 -30.899816
RightArm 13.028723 15.008099 42.266222
RightForeArm -15.617808 -0.000000 2.889044
RightHand 1.479035 -0.000000 0.400205
RightHandThumb1 -24.326973 -0.000000 -32.862282
LeftUpLeg -6.419810 -3.689879 6.229167
LeftLeg -4.820439 -0.000000 0.000000
LeftFoot -4.437163 8.355757 -19.708419
LeftToeBase -10.912208 -0.000000 0.000000
RightUpLeg -4.767466 1.584544 2.181547
RightLeg -6.393386 -0.000000 0.000000
RightFoot -3.775295 -14.889362 7.839592
RightToeBase -3.084209 -0.000000 0.000000
971
root -4.437985 33.004257 7.411406 553.636826 176.560201 -542.307746
Spine -15.676584 -7.265784 2.921369
Head 10.407100 -1.974357 -3.443815
LeftShoulder -22.338761 40.404017 16.172532
LeftArm 60.343366 -54.471611 -59.274765
LeftForeArm 11.455776 -0.000000 -0.630875
LeftHand 1.659604 -0.000000 3.804459
LeftHandThumb1 -26.253704 0.000000 33.147579
RightShoulder -6.184580 3.470229 -30.867953
RightArm 13.072538 15.136483 42.347145
RightForeArm -15.557771 -0.000000 2.909271
RightHand 1.596755 -0.000000 0.212165
RightHandThumb1 -24.326973 -0.000000 -32.862282
LeftUpLeg -6.413218 -3.657334 6.224111
LeftLeg -4.820974 -0.000000 0.000000
LeftFoot -4.387436 8.297305 -19.919048
LeftToeBase -11.219216 -0.000000 0.000000
RightUpLeg -4.765372 1.597459 2.182182
RightLeg -6.386741 -0.000000 0.000000
RightFoot -3.778004 -14.876519 7.848999
RightToeBase -3.065442 -0.000000 0.000000
972
root -4.438374 33.004243 7.412014 553.635586 176.573723 -542.311968
Spine -15.697130 -7.264110 2.920719
Head 10.406449 -1.994524 -3.446247
LeftShoulder -22.315526 40.400734 16.170437
LeftArm 60.290697 -54.445081 -59.252351
LeftForeArm 11.438385 -0.000000 -0.609002
LeftHand 1.753206 -0.000000 3.947982
LeftHandThumb1 -26.253704 0.000000 33.147579
RightShoulder -6.160937 3.518267 -30.870590
RightArm 12.982596 15.187998 42.425602
RightForeArm -15.502087 -0.000000 2.969399
RightHand 1.722152 -0.000000 0.096393
RightHandThumb1 -24.326973 -0.000000 -32.862282
LeftUpLeg -6.411516 -3.630642 6.221065
LeftLeg -4.812772 -0.000000 0.000000
LeftFoot -4.399035 8.293835 -19.931593
LeftToeBase -11.238666 -0.000000 0.000000
RightUpLeg -4.770682 1.580506 2.188395
RightLeg -6.367489 -0.000000 0.000000
RightFoot -3.780695 -14.846766 7.813129
RightToeBase -3.083036 -0.000000 0.000000
973
root -4.437926 33.004142 7.412237 553.638726 176.584864 -542.311775
Spine -15.721503 -7.265018 2.919266
Head 10.397348 -2.019863 -3.454603
LeftShoulder -22.302211 40.429198 16.167641
LeftArm 60.328295 -54.436623 -59.355231
LeftForeArm 11.439206 -0.000000 -0.554371
LeftHand 1.828606 -0.000000 4.000837
LeftHandThumb1 -26.253704 0.000000 33.147579
RightShoulder -6.164056 3.428149 -30.832750
RightArm 13.040546 15.266726 42.494842
RightForeArm -15.453113 -0.000000 2.995411
RightHand 1.852476 -0.000000 -0.097221
RightHandThumb1 -24.326973 -0.000000 -32.862282
LeftUpLeg -6.412334 -3.623239 6.213709
LeftLeg -4.807466 -0.000000 0.000000
LeftFoot -4.472458 8.363357 -19.719831
LeftToeBase -10.867632 -0.000000 0.000000
RightUpLeg -4.775580 1.569478 2.186343
RightLeg -6.360201 -0.000000 0.000000
RightFoot -3.781245 -14.814036 7.841704
RightToeBase -3.088711 -0.000000 0.000000
974
root -4.436832 33.003921 7.412597 553.637114 176.596439 -542.316601
Spine -15.740824 -7.273414 2.934088
Head 10.386668 -2.011591 -3.479404
LeftShoulder -22.317305 40.456210 16.133671
LeftArm 60.314337 -54.390356 -59.383925
LeftForeArm 11.441194 -0.000000 -0.495231
LeftHand 1.837600 -0.000000 4.055452
LeftHandThumb1 -26.253704 0.000000 33.147579
RightShoulder -6.145437 3.464617 -30.825926
RightArm 13.001629 15.248497 42.552156
RightForeArm -15.422018 -0.000000 3.006219
RightHand 1.969897 -0.000000 -0.254901
RightHandThumb1 -24.326973 -0.000000 -32.862282
LeftUpLeg -6.414987 -3.593661 6.207808
LeftLeg -4.791863 -0.000000 0.000000
LeftFoot -4.494259 8.361261 -19.698769
LeftToeBase -10.849877 -0.000000 0.000000
RightUpLeg -4.774005 1.569752 2.187946
RightLeg -6.358967 -0.000000 0.000000
RightFoot -3.778388 -14.804525 7.822306
RightToeBase -3.062366 -0.000000 0.000000
975
root -4.437029 33.003227 7.412678 553.635797 176.614197 -542.326232
Spine -15.761858 -7.270836 2.940014
Head 10.368702 -2.020694 -3.494771
LeftShoulder -22.300684 40.469702 16.133984
LeftArm 60.238908 -54.321712 -59.359964
LeftForeArm 11.441174 -0.000000 -0.447057
LeftHand 1.931127 0.000000 4.165243
LeftHandThumb1 -26.253704 0.000000 33.147579
RightShoulder -6.145317 3.492506 -30.790267
RightArm 12.983838 15.163597 42.580854
RightForeArm -15.375146 0.000000 3.015045
RightHand 1.944022 -0.000000 -0.393992
RightHandThumb1 -24.326973 -0.000000 -32.862282
LeftUpLeg -6.412321 -3.592023 6.214791
LeftLeg -4.788178 -0.000000 0.000000
LeftFoot -4.499854 8.381991 -19.685269
LeftToeBase -10.911028 -0.000000 0.000000
RightUpLeg -4.778359 1.563440 2.198243
RightLeg -6.347236 -0.000000 0.000000
RightFoot -3.770197 -14.777558 7.798668
RightToeBase -3.098653 -0.000000 0.000000
976
root -4.436758 33.002637 7.412495 553.635798 176.639856 -542.335721
Spine -15.786417 -7.262958 2.948357
Head 10.359376 -2.011433 -3.514839
LeftShoulder -22.271465 40.483179 16.156659
LeftArm 60.172563 -54.262242 -59.408005
LeftForeArm 11.432323 -0.000000 -0.344880
LeftHand 1.976562 -0.000000 4.218923
LeftHandThumb1 -26.253704 0.000000 33.147579
RightShoulder -6.117103 3.509918 -30.763210
RightArm 12.942865 15.150714 42.631108
RightForeArm -15.378787 -0.000000 3.024224
RightHand 2.044947 -0.000000 -0.505578
RightHandThumb1 -24.326973 -0.000000 -32.862282
LeftUpLeg -6.408311 -3.564200 6.213449
LeftLeg -4.788647 -0.000000 0.000000
LeftFoot -4.516685 8.396577 -19.674538
LeftToeBase -10.927267 -0.000000 0.000000
RightUpLeg -4.787375 1.558218 2.207113
RightLeg -6.327015 -0.000000 0.000000
RightFoot -3.775197 -14.749195 7.779475
RightToeBase -3.107773 -0.000000 0.000000
977
root -4.435652 33.001861 7.412626 553.629487 176.657143 -542.341448
Spine -15.800599 -7.267697 2.962142
Head 10.336178 -1.996147 -3.553879
LeftShoulder -22.254142 40.489128 16.151397
LeftArm 60.060331 -54.174477 -59.371275
LeftForeArm 11.279945 -0.000000 -0.286745
LeftHand 2.003416 -0.000000 4.284872
LeftHandThumb1 -26.253704 0.000000 33.147579
RightShoulder -6.111031 3.507797 -30.748322
RightArm 12.946214 15.139851 42.702840
RightForeArm -15.307979 0.000000 3.040367
RightHand 1.953662 -0.000000 -0.552311
RightHandThumb1 -24.326973 -0.000000 -32.862282
LeftUpLeg -6.398688 -3.561081 6.212241
LeftLeg -4.789886 -0.000000 0.000000
LeftFoot -4.485337 8.369746 -19.887901
LeftToeBase -11.214362 -0.000000 0.000000
RightUpLeg -4.783647 1.553678 2.208791
RightLeg -6.317343 -0.000000 0.000000
RightFoot -3.783874 -14.715568 7.784487
RightToeBase -3.069851 -0.000000 0.000000
